<svg xmlns="http://www.w3.org/2000/svg" width="1254" height="836" viewBox="0 0 1254 836">
<g>
<path d="M 634.78 512.44 C633.11,513.61 629.93,514.00 622.00,514.00 C614.07,514.00 610.89,513.61 609.22,512.44 L 607.00 510.89 L 607.00 410.23 L 604.50 408.59 C602.09,407.01 602.00,406.57 602.00,396.18 C602.00,384.73 602.62,383.00 606.70,383.00 C608.27,383.00 609.00,382.41 609.00,381.15 C609.00,378.85 607.49,377.58 597.51,371.46 C571.36,355.43 550.30,334.11 544.01,317.30 C539.81,306.08 540.39,291.39 545.46,280.31 C550.24,269.86 563.40,259.53 574.43,257.55 C576.60,257.16 583.49,256.88 589.74,256.93 C602.42,257.03 604.36,257.66 613.99,264.90 C616.99,267.16 619.80,269.00 620.24,269.00 C620.67,269.00 623.51,266.98 626.55,264.50 C635.77,256.99 644.58,253.57 657.57,252.45 C670.41,251.35 684.13,256.37 694.32,265.90 C700.37,271.55 703.81,277.36 706.17,285.86 C710.15,300.20 707.62,316.71 699.28,330.93 C691.60,344.00 671.06,361.87 648.28,375.27 C642.63,378.60 638.00,381.65 638.00,382.05 C638.00,382.46 638.67,383.05 639.50,383.36 C640.71,383.83 641.00,386.14 641.00,395.45 C641.00,406.62 640.93,407.00 638.50,408.59 L 636.00 410.23 L 636.00 447.96 L 656.25 448.23 L 676.50 448.50 L 676.50 466.50 L 668.75 466.79 L 661.00 467.08 L 661.00 482.00 L 676.08 482.00 L 675.50 500.50 L 663.28 500.78 C651.91,501.04 650.97,500.92 649.79,499.03 C648.75,497.37 647.46,497.00 642.76,497.00 L 637.00 497.00 L 637.00 503.94 C637.00,509.98 636.71,511.09 634.78,512.44 ZM 743.40 477.75 L 744.07 483.00 L 737.28 482.91 C721.69,482.70 706.26,478.23 693.25,470.14 L 689.00 467.50 L 689.00 457.72 C689.00,440.97 685.63,437.01 671.37,437.00 L 663.24 437.00 L 659.70 428.75 C654.37,416.31 652.75,408.95 652.62,396.59 L 652.50 385.68 L 659.71 381.29 C683.28,366.95 717.37,368.67 746.01,385.64 C754.41,390.62 767.79,401.29 768.74,403.76 C769.17,404.89 767.10,407.50 761.73,412.57 C753.84,420.01 740.60,427.57 731.19,430.00 C728.81,430.61 727.03,431.42 727.23,431.81 C736.81,450.17 741.66,463.93 743.40,477.75 ZM 612.12 356.50 C616.13,358.98 619.85,361.00 620.38,361.00 C622.13,361.00 646.64,344.19 655.17,337.14 C669.85,325.01 675.53,315.59 674.82,304.53 C674.32,296.66 671.02,291.27 664.27,287.31 C660.03,284.81 658.56,284.51 651.00,284.55 C643.69,284.59 641.74,284.99 637.05,287.41 C634.06,288.96 629.03,292.70 625.87,295.71 L 620.13 301.18 L 618.17 297.33 C615.45,291.99 606.08,283.41 599.77,280.47 C595.86,278.65 592.79,278.02 587.90,278.01 C576.63,277.99 570.74,281.04 565.98,289.34 C561.69,296.82 561.76,305.21 566.20,314.08 C572.01,325.71 591.75,343.95 612.12,356.50 ZM 504.32 628.88 C500.51,630.83 491.62,630.27 488.61,627.91 C483.84,624.15 482.00,619.04 482.00,609.51 C482.00,589.60 493.11,575.03 508.32,575.01 C511.51,575.00 515.04,575.49 516.15,576.08 C517.26,576.68 518.37,576.97 518.60,576.73 C518.84,576.49 519.32,571.96 519.67,566.65 L 520.30 557.00 L 517.65 557.00 C515.38,557.00 515.00,556.58 515.00,554.04 C515.00,550.46 516.16,549.77 525.70,547.62 C536.97,545.08 537.00,545.09 537.00,551.29 C537.00,554.20 536.09,565.34 534.98,576.04 C533.86,586.74 532.67,601.17 532.33,608.09 C531.72,620.39 531.76,620.70 533.85,621.25 C535.16,621.59 536.00,622.61 536.00,623.83 C536.00,625.37 534.67,626.35 530.46,627.93 C520.22,631.76 515.00,629.95 515.00,622.57 L 515.00 619.58 L 510.75 623.67 C508.41,625.93 505.52,628.27 504.32,628.88 ZM 757.50 653.63 C747.63,658.27 738.00,655.78 738.00,648.58 C738.00,645.01 739.80,638.98 740.85,639.03 C741.21,639.05 742.37,639.72 743.44,640.53 C745.93,642.41 753.28,642.42 756.90,640.55 C758.44,639.75 761.08,637.53 762.77,635.61 L 765.84 632.11 L 764.37 626.31 C761.39,614.51 757.69,602.29 754.81,594.76 C752.18,587.86 751.52,586.93 748.68,586.20 C746.25,585.58 745.43,584.76 745.19,582.74 C744.90,580.27 745.33,579.96 751.84,577.98 C755.66,576.82 760.53,576.01 762.65,576.18 C766.18,576.47 766.70,576.92 768.89,581.50 C770.20,584.25 772.80,592.55 774.66,599.94 C776.53,607.34 778.23,613.56 778.45,613.78 C778.67,614.00 780.23,609.86 781.92,604.58 C785.61,593.07 786.00,585.61 783.00,584.00 C779.63,582.20 780.50,579.24 784.75,578.03 C797.01,574.53 800.68,575.98 799.50,583.82 C797.97,594.02 787.16,619.02 778.24,632.97 C772.97,641.22 763.20,650.94 757.50,653.63 ZM 807.15 440.14 C803.45,441.59 798.74,442.47 793.50,442.67 C782.96,443.10 776.73,440.72 769.16,433.39 L 763.63 428.03 L 765.90 425.61 C769.48,421.80 779.43,416.98 785.86,415.95 C796.66,414.21 808.48,418.03 817.43,426.16 L 822.35 430.64 L 817.58 434.29 C814.95,436.29 810.26,438.93 807.15,440.14 ZM 797.33 387.38 C788.07,390.65 779.23,390.16 770.73,385.90 C766.10,383.58 760.00,378.25 760.00,376.51 C760.00,374.70 769.55,367.98 775.22,365.79 C786.15,361.58 799.66,363.82 810.35,371.62 L 815.20 375.16 L 812.91 377.60 C809.78,380.92 802.28,385.64 797.33,387.38 ZM 471.75 628.03 C466.00,630.64 458.62,630.62 456.00,628.00 C453.62,625.62 453.62,625.61 455.49,606.50 C455.56,605.85 455.62,605.22 455.68,604.61 C457.01,590.97 457.32,587.88 456.17,587.19 C455.84,586.99 455.38,586.99 454.78,587.00 C454.69,587.00 454.60,587.00 454.50,587.00 C452.32,587.00 452.00,586.56 452.00,583.60 C452.00,580.25 452.12,580.16 459.01,578.07 C462.86,576.90 467.70,575.84 469.76,575.72 L 473.50 575.50 L 473.82 580.00 C474.00,582.47 473.40,592.28 472.48,601.79 C471.57,611.30 471.07,619.74 471.38,620.54 C471.68,621.34 472.85,622.00 473.97,622.00 C475.35,622.00 476.00,622.66 476.00,624.05 C476.00,625.49 474.74,626.67 471.75,628.03 ZM 772.59 458.81 L 773.26 463.00 L 768.88 462.90 C756.40,462.61 746.52,456.17 742.54,445.73 C739.96,438.99 740.66,436.57 745.28,436.19 C750.58,435.75 758.85,438.39 763.03,441.86 C767.33,445.42 771.68,453.13 772.59,458.81 ZM 500.87 616.35 C503.00,618.91 506.31,618.31 509.69,614.75 C514.43,609.76 515.78,606.17 516.73,596.10 C517.55,587.40 517.48,586.75 515.58,585.42 C514.47,584.64 512.70,584.00 511.66,584.00 C508.65,584.00 502.34,591.05 500.90,596.04 C499.13,602.14 499.12,614.23 500.87,616.35 ZM 472.33 566.96 C468.89,569.66 462.69,569.69 460.00,567.00 C457.58,564.58 457.32,558.42 459.50,555.30 C461.56,552.36 466.99,550.66 470.30,551.93 C476.49,554.28 477.64,562.78 472.33,566.96 ZM 700.50 307.00 C700.07,311.53 700.17,312.06 701.06,310.00 C702.81,305.97 702.52,289.08 700.61,283.42 C695.91,269.51 681.92,259.18 665.50,257.51 L 660.50 257.00 L 665.65 258.33 C687.47,263.99 702.60,285.12 700.50,307.00 ZM 634.67 399.33 C636.48,401.15 637.06,399.36 636.79,392.75 L 636.50 385.50 L 625.50 385.40 C614.86,385.31 614.77,385.32 622.83,385.90 C632.45,386.59 634.00,387.79 634.00,394.52 C634.00,396.80 634.30,398.97 634.67,399.33 Z" fill="rgb(250,183,17)"/>
<path d="M 541.86 255.18 C539.85,256.73 537.83,257.97 537.36,257.93 C535.29,257.75 526.76,245.48 521.65,235.32 C517.89,227.84 514.00,215.43 514.00,210.93 C514.00,208.51 514.65,208.12 522.75,205.68 C540.11,200.46 558.19,199.84 574.20,203.93 C578.21,204.95 581.63,205.67 581.79,205.53 C581.94,205.38 581.55,201.04 580.92,195.88 C579.58,185.01 580.22,169.67 582.45,159.16 C584.73,148.46 591.40,132.18 597.08,123.47 L 602.04 115.88 L 608.08 119.19 C633.47,133.08 654.48,159.15 661.96,186.07 C665.26,197.94 666.55,214.94 665.14,227.97 C664.48,234.03 663.68,239.67 663.36,240.50 C662.94,241.59 661.24,242.00 657.10,242.00 C647.25,242.00 631.44,247.38 623.51,253.43 L 620.47 255.75 L 613.06 251.40 C601.21,244.45 593.71,242.48 579.50,242.58 C569.80,242.65 566.26,243.10 561.04,244.92 C553.94,247.39 547.46,250.85 541.86,255.18 ZM 493.85 501.38 C490.74,502.27 487.67,503.00 487.03,503.00 C485.56,503.00 479.70,490.36 477.53,482.50 C476.62,479.20 475.62,471.33 475.31,465.00 C474.16,441.36 480.73,424.94 497.90,408.65 C501.71,405.03 504.61,403.02 505.52,403.37 C506.33,403.68 510.26,406.12 514.25,408.79 C523.80,415.19 539.23,424.00 540.87,424.00 C542.71,424.00 564.78,409.02 575.59,400.44 L 576.22 399.94 C585.18,392.82 587.44,391.02 589.25,391.39 C589.91,391.53 590.50,391.94 591.33,392.48 C593.83,394.12 594.00,394.71 594.04,401.87 C594.06,406.59 594.62,410.45 595.50,412.00 C597.54,415.57 597.71,490.00 595.68,490.00 C593.40,490.00 580.75,485.42 575.00,482.51 C566.41,478.16 559.06,472.75 552.07,465.63 L 545.63 459.07 L 541.79 465.48 C531.88,482.03 513.59,495.73 493.85,501.38 ZM 702.85 635.90 C698.04,637.58 693.99,637.21 688.50,634.60 C680.39,630.75 669.67,618.19 662.66,604.32 C661.22,601.47 659.66,598.91 659.20,598.62 C658.74,598.34 656.93,598.97 655.18,600.04 C652.22,601.83 652.00,602.36 652.00,607.49 C652.00,612.95 652.03,613.00 655.00,613.00 C657.83,613.00 658.00,613.23 658.00,616.94 C658.00,620.65 657.81,620.89 654.75,621.19 C651.89,621.46 651.46,621.89 651.19,624.75 C650.76,629.17 648.45,630.14 639.24,629.79 L 631.50 629.50 L 631.20 625.36 C630.93,621.65 633.02,603.13 637.60,568.55 L 639.19 556.60 L 636.08 554.05 C629.76,548.85 631.93,547.87 651.25,547.24 C664.99,546.79 666.00,546.88 666.00,548.56 C666.00,549.56 665.03,551.41 663.83,552.68 C662.23,554.38 660.97,558.55 658.96,568.74 C657.48,576.31 656.47,582.72 656.72,583.00 C657.28,583.60 676.32,564.08 680.40,558.72 L 683.29 554.93 L 681.14 552.65 C677.70,548.98 678.37,547.36 683.64,546.64 C690.82,545.65 703.92,545.88 706.07,547.04 C709.10,548.66 708.40,550.35 702.75,555.07 C693.41,562.86 675.00,581.28 675.00,582.84 C675.00,584.79 690.09,612.78 695.02,619.99 C697.10,623.02 700.42,627.05 702.40,628.95 C706.82,633.18 706.90,634.49 702.85,635.90 ZM 571.75 627.54 C561.60,633.06 549.05,631.60 542.79,624.17 C538.82,619.44 537.71,614.85 538.21,605.13 C538.72,595.12 541.36,588.88 547.66,582.80 C553.25,577.42 559.20,575.05 567.17,575.02 C572.90,575.00 574.28,575.36 576.91,577.57 C582.76,582.50 583.15,590.73 577.84,597.47 C575.43,600.54 566.14,605.43 559.61,607.08 C554.59,608.34 554.12,609.39 556.49,613.99 C560.16,621.08 566.95,621.94 575.07,616.36 L 580.36 612.72 L 582.22 615.02 C584.07,617.31 584.06,617.35 580.44,621.06 C578.44,623.11 574.52,626.03 571.75,627.54 ZM 540.06 191.89 C527.40,194.61 514.73,190.84 505.81,181.72 C501.41,177.21 496.54,167.85 495.46,161.83 L 494.81 158.15 L 499.49 157.45 C507.58,156.24 518.06,157.42 524.25,160.26 C534.51,164.96 542.84,175.77 544.56,186.64 L 545.22 190.79 ZM 686.66 202.17 C684.00,204.28 681.42,206.00 680.92,206.00 C680.43,206.00 678.57,203.19 676.79,199.75 C673.92,194.23 673.54,192.57 673.54,185.50 C673.54,178.76 673.96,176.69 676.21,172.39 C678.92,167.23 688.10,158.00 690.54,158.00 C691.26,158.00 693.12,160.59 694.67,163.75 C697.12,168.75 697.48,170.67 697.49,178.50 C697.50,186.64 697.21,188.02 694.50,192.92 C692.82,195.97 689.38,200.02 686.66,202.17 ZM 589.39 521.13 C588.61,526.99 587.30,527.28 579.01,523.42 C570.69,519.55 567.47,516.62 564.09,509.85 C561.57,504.81 561.00,502.47 561.02,497.09 C561.04,488.37 561.40,487.90 567.28,489.15 C581.18,492.12 591.30,506.75 589.39,521.13 ZM 458.73 444.02 C455.85,445.26 450.69,446.50 447.25,446.77 L 441.00 447.27 L 441.00 443.67 C441.00,438.75 444.33,430.27 448.02,425.80 C449.71,423.74 453.87,420.71 457.37,418.99 C462.65,416.39 464.61,415.94 469.58,416.20 L 475.50 416.50 L 475.26 421.27 C475.12,423.89 474.37,427.58 473.58,429.46 C471.33,434.84 464.50,441.54 458.73,444.02 ZM 569.99 186.99 C568.60,189.46 566.80,191.61 565.99,191.76 C563.81,192.18 557.37,186.50 554.56,181.68 C549.41,172.88 549.26,162.35 554.15,152.73 C555.83,149.41 556.30,149.09 558.11,150.06 C561.84,152.05 567.62,158.59 570.07,163.58 C573.53,170.61 573.49,180.73 569.99,186.99 ZM 545.28 504.99 C542.77,507.19 540.08,509.00 539.31,509.00 C535.23,509.00 532.40,491.06 535.51,484.90 C538.43,479.13 545.28,473.00 548.83,473.00 C550.53,473.00 554.00,482.81 554.00,487.62 C554.00,493.90 550.93,500.01 545.28,504.99 ZM 555.00 598.54 C555.00,601.40 555.21,601.46 558.80,599.60 C563.71,597.04 566.45,593.23 566.45,588.97 C566.45,583.93 564.91,582.27 561.62,583.76 C559.04,584.94 555.00,593.94 555.00,598.54 Z" fill="rgb(22,141,177)"/>
<path d="M 604.07 258.62 C600.50,257.20 596.77,256.98 589.74,256.93 C583.49,256.88 576.60,257.16 574.43,257.55 C563.40,259.53 550.24,269.86 545.46,280.31 C540.39,291.39 539.81,306.08 544.01,317.30 C550.30,334.11 571.36,355.43 597.51,371.46 C607.49,377.58 609.00,378.85 609.00,381.15 C609.00,382.41 608.27,383.00 606.70,383.00 C602.68,383.00 602.02,384.67 602.00,395.62 L 602.00 384.29 L 595.05 379.67 C590.81,376.85 587.84,375.45 587.44,376.09 C585.68,378.95 563.10,397.15 552.66,404.14 L 540.83 412.06 L 537.16 409.83 C508.36,392.37 493.06,380.95 476.44,364.50 C457.63,345.89 447.72,328.62 444.87,309.50 C441.05,283.82 458.85,260.01 485.31,255.39 C502.73,252.35 517.82,257.26 531.31,270.37 L 536.04 274.96 L 539.64 270.98 C545.03,265.01 556.21,258.04 564.83,255.27 C571.49,253.13 573.82,252.87 582.50,253.27 C591.55,253.70 597.47,255.06 604.07,258.62 ZM 749.74 367.89 C739.29,371.22 737.43,371.48 734.85,369.98 C733.95,369.45 729.00,367.85 723.85,366.43 C716.68,364.45 711.20,363.72 700.35,363.29 L 686.21 362.73 L 693.39 355.62 C706.04,343.09 714.25,329.50 717.50,315.74 C719.42,307.57 719.41,291.99 717.47,284.54 C712.43,265.20 694.26,247.82 674.90,243.82 C671.66,243.15 669.00,242.23 669.00,241.77 C669.00,241.32 670.41,238.14 672.13,234.72 C676.21,226.63 689.17,213.62 698.10,208.66 C701.72,206.65 705.19,205.00 705.79,205.00 C707.15,205.00 714.88,219.03 719.05,229.07 C723.14,238.90 727.83,257.60 728.64,267.25 C729.00,271.51 729.45,275.00 729.65,275.00 C729.85,275.00 733.73,273.00 738.26,270.56 C756.36,260.79 776.18,256.39 797.95,257.30 C810.66,257.83 827.17,260.77 829.28,262.88 C830.57,264.17 827.15,284.36 824.03,293.91 C811.76,331.44 787.10,356.00 749.74,367.89 ZM 437.93 327.75 C440.74,335.94 440.75,336.00 438.63,335.91 C436.14,335.81 427.82,332.51 420.00,328.52 C411.73,324.31 400.93,316.75 393.91,310.28 C387.47,304.33 376.00,289.80 376.00,287.58 C376.00,285.84 392.03,273.16 400.50,268.19 C415.82,259.20 435.00,253.40 452.50,252.45 L 462.50 251.91 L 459.50 254.19 C457.85,255.44 453.51,259.44 449.84,263.07 C433.59,279.21 429.29,302.56 437.93,327.75 ZM 607.20 353.36 C588.66,341.05 571.54,324.77 566.20,314.08 C561.76,305.21 561.69,296.82 565.98,289.34 C570.74,281.04 576.63,277.99 587.90,278.01 C592.79,278.02 595.86,278.65 599.77,280.47 C606.08,283.41 615.45,291.99 618.17,297.33 L 620.13 301.18 L 620.00 301.30 L 620.00 310.49 C620.00,322.25 617.45,332.33 611.48,344.15 C609.19,348.67 607.40,352.55 607.20,353.36 ZM 416.26 628.14 C415.74,628.66 410.44,629.37 404.49,629.71 L 393.68 630.32 L 394.34 622.91 C394.71,618.83 395.67,610.10 396.48,603.50 C397.29,596.90 398.26,584.22 398.63,575.33 L 399.31 559.16 L 395.78 557.68 C393.85,556.87 391.52,555.15 390.61,553.86 C389.12,551.73 389.11,551.39 390.53,550.36 C395.31,546.86 447.62,545.78 451.62,549.10 C454.00,551.07 453.16,563.68 450.52,565.61 C447.83,567.57 447.29,567.42 443.70,563.61 C439.02,558.65 437.09,558.00 427.07,558.00 L 418.00 558.00 L 418.00 561.85 C418.00,563.96 417.71,569.81 417.35,574.85 L 416.70 584.00 L 423.10 583.99 C431.83,583.97 433.61,583.33 435.93,579.39 C437.42,576.87 438.62,576.00 440.62,576.00 L 443.31 576.00 L 442.68 587.61 C442.33,594.21 441.55,599.84 440.87,600.66 C439.14,602.74 435.74,601.89 434.32,599.02 C432.32,594.99 430.07,594.00 422.94,594.00 L 416.26 594.00 L 415.54 606.97 C415.03,616.11 415.18,621.00 416.02,623.56 C416.78,625.86 416.87,627.53 416.26,628.14 ZM 731.14 628.63 C724.76,631.26 716.24,631.68 711.50,629.61 C709.85,628.89 706.85,626.48 704.84,624.25 C695.85,614.29 698.23,593.81 709.66,582.80 C715.28,577.40 721.20,575.05 729.26,575.02 C735.52,575.00 736.29,575.24 739.55,578.25 C744.14,582.49 744.95,587.07 742.20,593.29 C739.60,599.17 734.10,603.15 724.48,606.14 C717.93,608.17 717.00,608.75 717.00,610.83 C717.00,612.19 718.45,614.65 720.40,616.60 C725.39,621.59 730.60,621.05 739.23,614.67 C741.88,612.71 742.02,612.71 743.98,614.48 C745.09,615.49 746.00,616.86 746.00,617.53 C746.00,619.56 737.17,626.15 731.14,628.63 ZM 740.95 222.40 C737.11,226.03 733.54,229.00 733.03,229.00 C731.72,229.00 727.73,223.48 724.36,217.00 C721.74,211.97 721.50,210.61 721.50,201.00 C721.50,191.17 721.70,190.12 724.64,184.50 C727.80,178.46 736.11,169.43 741.83,165.81 L 744.90 163.86 L 747.87 169.73 C752.76,179.42 754.29,186.18 753.79,195.90 C753.20,207.54 750.25,213.63 740.95,222.40 ZM 615.07 627.25 C610.40,629.61 608.44,630.00 601.07,630.00 C587.11,630.00 583.23,626.86 585.94,617.79 C587.20,613.61 589.33,612.88 591.03,616.05 C593.85,621.32 603.99,623.88 607.35,620.17 C608.26,619.17 609.00,617.86 609.00,617.27 C609.00,615.80 603.39,611.19 596.51,607.00 C589.12,602.50 586.00,598.02 586.00,591.92 C586.00,580.65 598.74,572.55 613.32,574.54 C621.98,575.72 623.00,576.40 623.00,580.91 C623.00,589.37 619.46,592.72 616.52,587.04 C614.45,583.03 607.99,581.12 604.42,583.46 C599.76,586.51 601.49,589.15 612.48,595.72 C621.99,601.42 625.01,605.32 624.98,611.90 C624.96,618.82 621.67,623.91 615.07,627.25 ZM 505.56 239.98 C499.37,242.33 486.11,240.74 478.40,236.72 C468.75,231.69 456.91,210.78 462.49,208.64 C469.12,206.10 481.82,207.28 489.91,211.20 C498.78,215.49 506.49,225.79 507.73,234.99 C508.21,238.59 508.01,239.05 505.56,239.98 ZM 416.15 412.04 C409.60,414.06 397.61,414.67 395.14,413.11 C391.94,411.08 396.90,397.44 403.48,390.15 C410.23,382.68 422.87,378.11 432.93,379.49 C440.55,380.54 440.76,380.87 438.76,388.51 C435.61,400.53 428.09,408.35 416.15,412.04 ZM 477.24 404.07 C470.18,405.87 463.64,406.20 453.13,405.26 L 448.75 404.87 L 449.46 397.73 C450.35,388.63 454.07,376.86 457.99,370.67 L 461.06 365.84 L 469.78 374.11 C474.58,378.65 482.48,385.52 487.35,389.37 L 496.19 396.37 L 490.50 399.25 C487.36,400.84 481.40,403.00 477.24,404.07 ZM 757.36 253.39 C752.39,255.09 739.43,255.56 737.18,254.13 C733.76,251.97 740.51,236.29 747.39,230.40 C754.01,224.73 766.56,221.76 775.96,223.64 C779.03,224.26 779.14,224.44 778.49,227.89 C776.53,238.39 766.75,250.19 757.36,253.39 ZM 442.50 364.77 C436.34,367.95 422.88,368.92 416.70,366.61 C412.54,365.07 406.10,360.88 403.55,358.06 C402.04,356.39 402.18,356.05 405.67,352.98 C412.40,347.08 419.35,344.56 429.00,344.54 C436.30,344.52 438.21,344.89 442.50,347.16 C445.25,348.62 448.82,351.21 450.44,352.91 L 453.37 356.00 L 450.44 359.09 C448.82,360.79 445.25,363.35 442.50,364.77 ZM 717.22 596.74 L 716.73 601.05 L 719.43 600.02 C724.39,598.14 725.97,596.96 727.49,594.02 C729.37,590.38 729.42,586.95 727.61,584.48 C724.42,580.12 718.28,587.36 717.22,596.74 ZM 621.63 268.23 C620.90,268.72 620.40,269.00 620.24,269.00 C619.85,269.00 617.60,267.55 615.01,265.66 C618.12,267.75 619.63,268.60 620.99,268.40 C621.20,268.37 621.41,268.31 621.63,268.23 ZM 635.66 351.42 C642.98,346.38 651.03,340.56 655.17,337.14 C650.99,340.60 642.96,346.40 635.66,351.42 ZM 618.86 360.37 C619.66,360.76 620.22,360.99 620.42,361.00 C620.41,361.00 620.39,361.00 620.38,361.00 C620.20,361.00 619.66,360.77 618.86,360.37 Z" fill="rgb(246,85,78)"/>
<path d="M 0.00 418.00 L 0.00 0.00 L 627.00 0.00 L 1254.00 0.00 L 1254.00 418.00 L 1254.00 836.00 L 627.00 836.00 L 0.00 836.00 L 0.00 418.00 ZM 757.50 653.63 C763.20,650.94 772.97,641.22 778.24,632.97 C787.16,619.02 797.97,594.02 799.50,583.82 C800.68,575.98 797.01,574.53 784.75,578.03 C780.50,579.24 779.63,582.20 783.00,584.00 C786.00,585.61 785.61,593.07 781.92,604.58 C780.23,609.86 778.67,614.00 778.45,613.78 C778.23,613.56 776.53,607.34 774.66,599.94 C772.80,592.55 770.20,584.25 768.89,581.50 C766.70,576.92 766.18,576.47 762.65,576.18 C760.53,576.01 755.66,576.82 751.84,577.98 C745.33,579.96 744.90,580.27 745.19,582.74 C745.43,584.76 746.25,585.58 748.68,586.20 C751.52,586.93 752.18,587.86 754.81,594.76 C757.69,602.29 761.39,614.51 764.37,626.31 L 765.84 632.11 L 762.77 635.61 C761.08,637.53 758.44,639.75 756.90,640.55 C753.28,642.42 745.93,642.41 743.44,640.53 C742.37,639.72 741.21,639.05 740.85,639.03 C739.80,638.98 738.00,645.01 738.00,648.58 C738.00,655.78 747.63,658.27 757.50,653.63 ZM 702.85 635.90 C706.90,634.49 706.82,633.18 702.40,628.95 C700.42,627.05 697.10,623.02 695.02,619.99 C690.09,612.78 675.00,584.79 675.00,582.84 C675.00,581.28 693.41,562.86 702.75,555.07 C708.40,550.35 709.10,548.66 706.07,547.04 C703.92,545.88 690.82,545.65 683.64,546.64 C678.37,547.36 677.70,548.98 681.14,552.65 L 683.29 554.93 L 680.40 558.72 C676.32,564.08 657.28,583.60 656.72,583.00 C656.47,582.72 657.48,576.31 658.96,568.74 C660.97,558.55 662.23,554.38 663.83,552.68 C665.03,551.41 666.00,549.56 666.00,548.56 C666.00,546.88 664.99,546.79 651.25,547.24 C631.93,547.87 629.76,548.85 636.08,554.05 L 639.19 556.60 L 637.60 568.55 C633.02,603.13 630.93,621.65 631.20,625.36 L 631.50 629.50 L 639.24 629.79 C648.45,630.14 650.76,629.17 651.19,624.75 C651.46,621.89 651.89,621.46 654.75,621.19 C657.81,620.89 658.00,620.65 658.00,616.94 C658.00,613.23 657.83,613.00 655.00,613.00 C652.03,613.00 652.00,612.95 652.00,607.49 C652.00,602.36 652.22,601.83 655.18,600.04 C656.93,598.97 658.74,598.34 659.20,598.62 C659.66,598.91 661.22,601.47 662.66,604.32 C669.67,618.19 680.39,630.75 688.50,634.60 C693.99,637.21 698.04,637.58 702.85,635.90 ZM 571.75 627.54 C574.52,626.03 578.44,623.11 580.44,621.06 C584.06,617.35 584.07,617.31 582.22,615.02 L 580.36 612.72 L 575.07 616.36 C566.95,621.94 560.16,621.08 556.49,613.99 C554.12,609.39 554.59,608.34 559.61,607.08 C566.14,605.43 575.43,600.54 577.84,597.47 C583.15,590.73 582.76,582.50 576.91,577.57 C574.28,575.36 572.90,575.00 567.17,575.02 C559.20,575.05 553.25,577.42 547.66,582.80 C541.36,588.88 538.72,595.12 538.21,605.13 C537.71,614.85 538.82,619.44 542.79,624.17 C549.05,631.60 561.60,633.06 571.75,627.54 ZM 731.14 628.63 C737.17,626.15 746.00,619.56 746.00,617.53 C746.00,616.86 745.09,615.49 743.98,614.48 C742.02,612.71 741.88,612.71 739.23,614.67 C730.60,621.05 725.39,621.59 720.40,616.60 C718.45,614.65 717.00,612.19 717.00,610.83 C717.00,608.75 717.93,608.17 724.48,606.14 C734.10,603.15 739.60,599.17 742.20,593.29 C744.95,587.07 744.14,582.49 739.55,578.25 C736.29,575.24 735.52,575.00 729.26,575.02 C721.20,575.05 715.28,577.40 709.66,582.80 C698.23,593.81 695.85,614.29 704.84,624.25 C706.85,626.48 709.85,628.89 711.50,629.61 C716.24,631.68 724.76,631.26 731.14,628.63 ZM 416.26 628.14 C416.87,627.53 416.78,625.86 416.02,623.56 C415.18,621.00 415.03,616.11 415.54,606.97 L 416.26 594.00 L 422.94 594.00 C430.07,594.00 432.32,594.99 434.32,599.02 C435.74,601.89 439.14,602.74 440.87,600.66 C441.55,599.84 442.33,594.21 442.68,587.61 L 443.31 576.00 L 440.62 576.00 C438.62,576.00 437.42,576.87 435.93,579.39 C433.61,583.33 431.83,583.97 423.10,583.99 L 416.70 584.00 L 417.35 574.85 C417.71,569.81 418.00,563.96 418.00,561.85 L 418.00 558.00 L 427.07 558.00 C437.09,558.00 439.02,558.65 443.70,563.61 C447.29,567.42 447.83,567.57 450.52,565.61 C453.16,563.68 454.00,551.07 451.62,549.10 C447.62,545.78 395.31,546.86 390.53,550.36 C389.11,551.39 389.12,551.73 390.61,553.86 C391.52,555.15 393.85,556.87 395.78,557.68 L 399.31 559.16 L 398.63 575.33 C398.26,584.22 397.29,596.90 396.48,603.50 C395.67,610.10 394.71,618.83 394.34,622.91 L 393.68 630.32 L 404.49 629.71 C410.44,629.37 415.74,628.66 416.26,628.14 ZM 471.75 628.03 C474.74,626.67 476.00,625.49 476.00,624.05 C476.00,622.66 475.35,622.00 473.97,622.00 C472.85,622.00 471.68,621.34 471.38,620.54 C471.07,619.74 471.57,611.30 472.48,601.79 C473.40,592.28 474.00,582.47 473.82,580.00 L 473.50 575.50 L 469.76 575.72 C467.70,575.84 462.86,576.90 459.01,578.07 C452.12,580.16 452.00,580.25 452.00,583.60 C452.00,586.56 452.32,587.00 454.50,587.00 C457.50,587.00 457.47,586.33 455.49,606.50 C453.62,625.61 453.62,625.62 456.00,628.00 C458.62,630.62 466.00,630.64 471.75,628.03 ZM 504.32 628.88 C505.52,628.27 508.41,625.93 510.75,623.67 L 515.00 619.58 L 515.00 622.57 C515.00,629.95 520.22,631.76 530.46,627.93 C534.67,626.35 536.00,625.37 536.00,623.83 C536.00,622.61 535.16,621.59 533.85,621.25 C531.76,620.70 531.72,620.39 532.33,608.09 C532.67,601.17 533.86,586.74 534.98,576.04 C536.09,565.34 537.00,554.20 537.00,551.29 C537.00,545.09 536.97,545.08 525.70,547.62 C516.16,549.77 515.00,550.46 515.00,554.04 C515.00,556.58 515.38,557.00 517.65,557.00 L 520.30 557.00 L 519.67 566.65 C519.32,571.96 518.84,576.49 518.60,576.73 C518.37,576.97 517.26,576.68 516.15,576.08 C515.04,575.49 511.51,575.00 508.32,575.01 C493.11,575.03 482.00,589.60 482.00,609.51 C482.00,619.04 483.84,624.15 488.61,627.91 C491.62,630.27 500.51,630.83 504.32,628.88 ZM 615.07 627.25 C621.67,623.91 624.96,618.82 624.98,611.90 C625.01,605.32 621.99,601.42 612.48,595.72 C601.49,589.15 599.76,586.51 604.42,583.46 C607.99,581.12 614.45,583.03 616.52,587.04 C619.46,592.72 623.00,589.37 623.00,580.91 C623.00,576.40 621.98,575.72 613.32,574.54 C598.74,572.55 586.00,580.65 586.00,591.92 C586.00,598.02 589.12,602.50 596.51,607.00 C603.39,611.19 609.00,615.80 609.00,617.27 C609.00,617.86 608.26,619.17 607.35,620.17 C603.99,623.88 593.85,621.32 591.03,616.05 C589.33,612.88 587.20,613.61 585.94,617.79 C583.23,626.86 587.11,630.00 601.07,630.00 C608.44,630.00 610.40,629.61 615.07,627.25 ZM 472.33 566.96 C477.64,562.78 476.49,554.28 470.30,551.93 C466.99,550.66 461.56,552.36 459.50,555.30 C457.32,558.42 457.58,564.58 460.00,567.00 C462.69,569.69 468.89,569.66 472.33,566.96 ZM 589.39 521.13 C591.30,506.75 581.18,492.12 567.28,489.15 C561.40,487.90 561.04,488.37 561.02,497.09 C561.00,502.47 561.57,504.81 564.09,509.85 C567.47,516.62 570.69,519.55 579.01,523.42 C587.30,527.28 588.61,526.99 589.39,521.13 ZM 634.78 512.44 C636.71,511.09 637.00,509.98 637.00,503.94 L 637.00 497.00 L 642.76 497.00 C647.46,497.00 648.75,497.37 649.79,499.03 C650.97,500.92 651.91,501.04 663.28,500.78 L 675.50 500.50 L 675.79 491.25 L 676.08 482.00 L 668.54 482.00 L 661.00 482.00 L 661.00 474.54 L 661.00 467.08 L 668.75 466.79 L 676.50 466.50 L 676.50 457.50 L 676.50 448.50 L 656.25 448.23 L 636.00 447.96 L 636.00 429.09 L 636.00 410.23 L 638.50 408.59 C640.93,407.00 641.00,406.62 641.00,395.45 C641.00,386.14 640.71,383.83 639.50,383.36 C638.67,383.05 638.00,382.46 638.00,382.05 C638.00,381.65 642.63,378.60 648.28,375.27 C671.06,361.87 691.60,344.00 699.28,330.93 C707.62,316.71 710.15,300.20 706.17,285.86 C703.81,277.36 700.37,271.55 694.32,265.90 C684.13,256.37 670.41,251.35 657.57,252.45 C644.49,253.58 635.78,256.98 626.36,264.66 C619.92,269.90 621.74,270.17 610.05,262.28 C600.62,255.93 594.16,253.82 582.50,253.27 C573.82,252.87 571.49,253.13 564.83,255.27 C556.21,258.04 545.03,265.01 539.64,270.98 L 536.04 274.96 L 531.31 270.37 C517.82,257.26 502.73,252.35 485.31,255.39 C458.85,260.01 441.05,283.82 444.87,309.50 C447.72,328.62 457.63,345.89 476.44,364.50 C493.06,380.95 508.36,392.37 537.16,409.83 L 540.83 412.06 L 552.66 404.14 C563.10,397.15 585.68,378.95 587.44,376.09 C587.84,375.45 590.81,376.85 595.05,379.67 L 602.00 384.29 L 602.00 395.62 C602.00,406.61 602.08,407.00 604.50,408.59 L 607.00 410.23 L 607.00 460.56 L 607.00 510.89 L 609.22 512.44 C610.89,513.61 614.07,514.00 622.00,514.00 C629.93,514.00 633.11,513.61 634.78,512.44 ZM 545.28 504.99 C550.93,500.01 554.00,493.90 554.00,487.62 C554.00,482.81 550.53,473.00 548.83,473.00 C545.28,473.00 538.43,479.13 535.51,484.90 C532.40,491.06 535.23,509.00 539.31,509.00 C540.08,509.00 542.77,507.19 545.28,504.99 ZM 493.85 501.38 C513.59,495.73 531.88,482.03 541.79,465.48 L 545.63 459.07 L 552.07 465.63 C559.06,472.75 566.41,478.16 575.00,482.51 C580.75,485.42 593.40,490.00 595.68,490.00 C597.71,490.00 597.54,415.57 595.50,412.00 C594.62,410.45 594.06,406.59 594.04,401.87 C594.00,394.71 593.83,394.12 591.33,392.48 C588.14,390.39 588.41,390.25 575.59,400.44 C564.78,409.02 542.71,424.00 540.87,424.00 C539.23,424.00 523.80,415.19 514.25,408.79 C510.26,406.12 506.33,403.68 505.52,403.37 C504.61,403.02 501.71,405.03 497.90,408.65 C480.73,424.94 474.16,441.36 475.31,465.00 C475.62,471.33 476.62,479.20 477.53,482.50 C479.70,490.36 485.56,503.00 487.03,503.00 C487.67,503.00 490.74,502.27 493.85,501.38 ZM 743.40 477.75 C741.66,463.93 736.81,450.17 727.23,431.81 C727.03,431.42 728.81,430.61 731.19,430.00 C740.60,427.57 753.84,420.01 761.73,412.57 C767.10,407.50 769.17,404.89 768.74,403.76 C767.79,401.29 754.41,390.62 746.01,385.64 C717.37,368.67 683.28,366.95 659.71,381.29 L 652.50 385.68 L 652.62 396.59 C652.75,408.95 654.37,416.31 659.70,428.75 L 663.24 437.00 L 671.37 437.00 C685.63,437.01 689.00,440.97 689.00,457.72 L 689.00 467.50 L 693.25 470.14 C706.26,478.23 721.69,482.70 737.28,482.91 L 744.07 483.00 L 743.40 477.75 ZM 772.59 458.81 C771.68,453.13 767.33,445.42 763.03,441.86 C758.85,438.39 750.58,435.75 745.28,436.19 C740.66,436.57 739.96,438.99 742.54,445.73 C746.52,456.17 756.40,462.61 768.88,462.90 L 773.26 463.00 L 772.59 458.81 ZM 458.73 444.02 C464.50,441.54 471.33,434.84 473.58,429.46 C474.37,427.58 475.12,423.89 475.26,421.27 L 475.50 416.50 L 469.58 416.20 C464.61,415.94 462.65,416.39 457.37,418.99 C453.87,420.71 449.71,423.74 448.02,425.80 C444.33,430.27 441.00,438.75 441.00,443.67 L 441.00 447.27 L 447.25 446.77 C450.69,446.50 455.85,445.26 458.73,444.02 ZM 807.15 440.14 C810.26,438.93 814.95,436.29 817.58,434.29 L 822.35 430.64 L 817.43 426.16 C808.48,418.03 796.66,414.21 785.86,415.95 C779.43,416.98 769.48,421.80 765.90,425.61 L 763.63 428.03 L 769.16 433.39 C776.73,440.72 782.96,443.10 793.50,442.67 C798.74,442.47 803.45,441.59 807.15,440.14 ZM 416.15 412.04 C428.09,408.35 435.61,400.53 438.76,388.51 C440.76,380.87 440.55,380.54 432.93,379.49 C422.87,378.11 410.23,382.68 403.48,390.15 C396.90,397.44 391.94,411.08 395.14,413.11 C397.61,414.67 409.60,414.06 416.15,412.04 ZM 477.24 404.07 C481.40,403.00 487.36,400.84 490.50,399.25 L 496.19 396.37 L 487.35 389.37 C482.48,385.52 474.58,378.65 469.78,374.11 L 461.06 365.84 L 457.99 370.67 C454.07,376.86 450.35,388.63 449.46,397.73 L 448.75 404.87 L 453.13 405.26 C463.64,406.20 470.18,405.87 477.24,404.07 ZM 797.33 387.38 C802.28,385.64 809.78,380.92 812.91,377.60 L 815.20 375.16 L 810.35 371.62 C799.66,363.82 786.15,361.58 775.22,365.79 C769.55,367.98 760.00,374.70 760.00,376.51 C760.00,378.25 766.10,383.58 770.73,385.90 C779.23,390.16 788.07,390.65 797.33,387.38 ZM 749.74 367.89 C787.10,356.00 811.76,331.44 824.03,293.91 C827.15,284.36 830.57,264.17 829.28,262.88 C827.17,260.77 810.66,257.83 797.95,257.30 C776.18,256.39 756.36,260.79 738.26,270.56 C733.73,273.00 729.85,275.00 729.65,275.00 C729.45,275.00 729.00,271.51 728.64,267.25 C727.83,257.60 723.14,238.90 719.05,229.07 C714.88,219.03 707.15,205.00 705.79,205.00 C705.19,205.00 701.72,206.65 698.10,208.66 C689.17,213.62 676.21,226.63 672.13,234.72 C670.41,238.14 669.00,241.32 669.00,241.77 C669.00,242.23 671.66,243.15 674.90,243.82 C694.26,247.82 712.43,265.20 717.47,284.54 C719.41,291.99 719.42,307.57 717.50,315.74 C714.25,329.50 706.04,343.09 693.39,355.62 L 686.21 362.73 L 700.35 363.29 C711.20,363.72 716.68,364.45 723.85,366.43 C729.00,367.85 733.95,369.45 734.85,369.98 C737.43,371.48 739.29,371.22 749.74,367.89 ZM 442.50 364.77 C445.25,363.35 448.82,360.79 450.44,359.09 L 453.37 356.00 L 450.44 352.91 C448.82,351.21 445.25,348.62 442.50,347.16 C438.21,344.89 436.30,344.52 429.00,344.54 C419.35,344.56 412.40,347.08 405.67,352.98 C402.18,356.05 402.04,356.39 403.55,358.06 C406.10,360.88 412.54,365.07 416.70,366.61 C422.88,368.92 436.34,367.95 442.50,364.77 ZM 437.93 327.75 C429.29,302.56 433.59,279.21 449.84,263.07 C453.51,259.44 457.85,255.44 459.50,254.19 L 462.50 251.91 L 452.50 252.45 C435.00,253.40 415.82,259.20 400.50,268.19 C392.03,273.16 376.00,285.84 376.00,287.58 C376.00,289.80 387.47,304.33 393.91,310.28 C400.93,316.75 411.73,324.31 420.00,328.52 C427.82,332.51 436.14,335.81 438.63,335.91 C440.75,336.00 440.74,335.94 437.93,327.75 ZM 541.86 255.18 C547.46,250.85 553.94,247.39 561.04,244.92 C566.26,243.10 569.80,242.65 579.50,242.58 C593.71,242.48 601.21,244.45 613.06,251.40 L 620.47 255.75 L 623.51 253.43 C631.44,247.38 647.25,242.00 657.10,242.00 C661.24,242.00 662.94,241.59 663.36,240.50 C663.68,239.67 664.48,234.03 665.14,227.97 C666.55,214.94 665.26,197.94 661.96,186.07 C654.48,159.15 633.47,133.08 608.08,119.19 L 602.04 115.88 L 597.08 123.47 C591.40,132.18 584.73,148.46 582.45,159.16 C580.22,169.67 579.58,185.01 580.92,195.88 C581.55,201.04 581.94,205.38 581.79,205.53 C581.63,205.67 578.21,204.95 574.20,203.93 C558.19,199.84 540.11,200.46 522.75,205.68 C514.65,208.12 514.00,208.51 514.00,210.93 C514.00,215.43 517.89,227.84 521.65,235.32 C526.76,245.48 535.29,257.75 537.36,257.93 C537.83,257.97 539.85,256.73 541.86,255.18 ZM 757.36 253.39 C766.75,250.19 776.53,238.39 778.49,227.89 C779.14,224.44 779.03,224.26 775.96,223.64 C766.56,221.76 754.01,224.73 747.39,230.40 C740.51,236.29 733.76,251.97 737.18,254.13 C739.43,255.56 752.39,255.09 757.36,253.39 ZM 505.56 239.98 C508.01,239.05 508.21,238.59 507.73,234.99 C506.49,225.79 498.78,215.49 489.91,211.20 C481.82,207.28 469.12,206.10 462.49,208.64 C456.91,210.78 468.75,231.69 478.40,236.72 C486.11,240.74 499.37,242.33 505.56,239.98 ZM 740.95 222.40 C750.25,213.63 753.20,207.54 753.79,195.90 C754.29,186.18 752.76,179.42 747.87,169.73 L 744.90 163.86 L 741.83 165.81 C736.11,169.43 727.80,178.46 724.64,184.50 C721.70,190.12 721.50,191.17 721.50,201.00 C721.50,210.61 721.74,211.97 724.36,217.00 C727.73,223.48 731.72,229.00 733.03,229.00 C733.54,229.00 737.11,226.03 740.95,222.40 ZM 686.66 202.17 C689.38,200.02 692.82,195.97 694.50,192.92 C697.21,188.02 697.50,186.64 697.49,178.50 C697.48,170.67 697.12,168.75 694.67,163.75 C693.12,160.59 691.26,158.00 690.54,158.00 C688.10,158.00 678.92,167.23 676.21,172.39 C673.96,176.69 673.54,178.76 673.54,185.50 C673.54,192.57 673.92,194.23 676.79,199.75 C678.57,203.19 680.43,206.00 680.92,206.00 C681.42,206.00 684.00,204.28 686.66,202.17 ZM 540.06 191.89 L 545.22 190.79 L 544.56 186.64 C542.84,175.77 534.51,164.96 524.25,160.26 C518.06,157.42 507.58,156.24 499.49,157.45 L 494.81 158.15 L 495.46 161.83 C496.54,167.85 501.41,177.21 505.81,181.72 C514.73,190.84 527.40,194.61 540.06,191.89 ZM 569.99 186.99 C573.49,180.73 573.53,170.61 570.07,163.58 C567.62,158.59 561.84,152.05 558.11,150.06 C556.30,149.09 555.83,149.41 554.15,152.73 C549.26,162.35 549.41,172.88 554.56,181.68 C557.37,186.50 563.81,192.18 565.99,191.76 C566.80,191.61 568.60,189.46 569.99,186.99 ZM 555.00 598.54 C555.00,593.94 559.04,584.94 561.62,583.76 C564.91,582.27 566.45,583.93 566.45,588.97 C566.45,593.23 563.71,597.04 558.80,599.60 C555.21,601.46 555.00,601.40 555.00,598.54 ZM 717.22 596.74 C718.28,587.36 724.42,580.12 727.61,584.48 C729.42,586.95 729.37,590.38 727.49,594.02 C725.97,596.96 724.39,598.14 719.43,600.02 L 716.73 601.05 L 717.22 596.74 ZM 500.87 616.35 C499.12,614.23 499.13,602.14 500.90,596.04 C502.34,591.05 508.65,584.00 511.66,584.00 C512.70,584.00 514.47,584.64 515.58,585.42 C517.48,586.75 517.55,587.40 516.73,596.10 C515.78,606.17 514.43,609.76 509.69,614.75 C506.31,618.31 503.00,618.91 500.87,616.35 ZM 634.67 399.33 C634.30,398.97 634.00,396.80 634.00,394.52 C634.00,387.79 632.45,386.59 622.83,385.90 C614.77,385.32 614.86,385.31 625.50,385.40 L 636.50 385.50 L 636.79 392.75 C637.06,399.36 636.48,401.15 634.67,399.33 ZM 613.50 357.39 C610.20,355.41 607.36,353.66 607.20,353.51 C607.03,353.35 608.96,349.14 611.48,344.15 C617.45,332.33 620.00,322.25 620.00,310.49 L 620.00 301.30 L 625.80 295.77 C629.00,292.72 634.06,288.96 637.05,287.41 C641.74,284.99 643.69,284.59 651.00,284.55 C658.56,284.51 660.03,284.81 664.27,287.31 C671.02,291.27 674.32,296.66 674.82,304.53 C675.53,315.59 669.85,325.01 655.17,337.14 C646.74,344.10 622.13,361.00 620.43,361.00 C619.92,361.00 616.80,359.37 613.50,357.39 ZM 700.50 307.00 C702.60,285.12 687.47,263.99 665.65,258.33 L 660.50 257.00 L 665.50 257.51 C681.92,259.18 695.91,269.51 700.61,283.42 C702.52,289.08 702.81,305.97 701.06,310.00 C700.17,312.06 700.07,311.53 700.50,307.00 Z" fill="rgb(253,253,253)"/>
</g>
</svg>